<svg xmlns="http://www.w3.org/2000/svg" width="64" height="64" viewBox="0 0 64 64">
  <defs>
    <radialGradient id="bg" cx="50%" cy="42%" r="60%">
      <stop offset="0%" stop-color="#1B150F"/>
      <stop offset="100%" stop-color="#0E0B08"/>
    </radialGradient>
    <linearGradient id="ring" x1="0" y1="0" x2="0" y2="1">
      <stop offset="0%" stop-color="#E3C684"/>
      <stop offset="100%" stop-color="#A88945"/>
    </linearGradient>
  </defs>
  <rect width="64" height="64" rx="14" fill="url(#bg)"/>
  <circle cx="32" cy="32" r="25" fill="none" stroke="url(#ring)" stroke-width="2"/>
  <path d="M32 14c0 0 9 11 9 17a9 9 0 0 1-18 0c0-6 9-17 9-17z" fill="none" stroke="#E3C684" stroke-width="2" stroke-linejoin="round"/>
  <path d="M25 33a7 7 0 0 0 14 0c0-1.4-.4-2.9-1-4.4H26c-.6 1.5-1 3-1 4.4z" fill="#D89C3A" fill-opacity="0.7"/>
  <path d="M21 46h22" stroke="#C8A45D" stroke-opacity="0.6" stroke-width="2" stroke-linecap="round"/>
</svg>
